<svg xmlns="http://www.w3.org/2000/svg" width="44" height="88" viewBox="0 0 44 88">
  <g fill="none" fill-rule="evenodd">
    <path fill="#000000" d="M30.8961161,12 L13.1038839,12 C12.4940538,12 12,12.4940538 12,13.103809 L12,30.896191 C12,31.5057963 12.4940538,32 13.1038839,32 L22.6825931,32 L22.6825931,24.2549776 L20.07624,24.2549776 L20.07624,21.2365508 L22.6825931,21.2365508 L22.6825931,19.0105735 C22.6825931,16.4273007 24.2602981,15.0206749 26.5648085,15.0206749 C27.6686175,15.0206749 28.6173087,15.1028798 28.893898,15.1395985 L28.893898,17.839247 L27.2955106,17.8399964 C26.042279,17.8399964 25.7996358,18.4355137 25.7996358,19.3094187 L25.7996358,21.2365508 L28.7885378,21.2365508 L28.3993196,24.2549776 L25.7996358,24.2549776 L25.7996358,32 L30.8961161,32 C31.5057214,32 31.9999251,31.5057963 31.9999251,30.896191 L31.9999251,13.103809 C31.9999251,12.4940538 31.5057214,12 30.8961161,12"/>
    <path fill="#FFFFFF" d="M30.8961161,56 L13.1038839,56 C12.4940538,56 12,56.4940538 12,57.103809 L12,74.896191 C12,75.5057963 12.4940538,76 13.1038839,76 L22.6825931,76 L22.6825931,68.2549776 L20.07624,68.2549776 L20.07624,65.2365508 L22.6825931,65.2365508 L22.6825931,63.0105735 C22.6825931,60.4273007 24.2602981,59.0206749 26.5648085,59.0206749 C27.6686175,59.0206749 28.6173087,59.1028798 28.893898,59.1395985 L28.893898,61.839247 L27.2955106,61.8399964 C26.042279,61.8399964 25.7996358,62.4355137 25.7996358,63.3094187 L25.7996358,65.2365508 L28.7885378,65.2365508 L28.3993196,68.2549776 L25.7996358,68.2549776 L25.7996358,76 L30.8961161,76 C31.5057214,76 31.9999251,75.5057963 31.9999251,74.896191 L31.9999251,57.103809 C31.9999251,56.4940538 31.5057214,56 30.8961161,56"/>
  </g>
</svg>
