<svg xmlns="http://www.w3.org/2000/svg" width="44" height="88" viewBox="0 0 44 88">
  <g fill="none" fill-rule="evenodd">
    <path fill="#FFFFFF" d="M33,59.1082568 C32.190541,59.4658453 31.3206482,59.7075241 30.4076228,59.8162194 C31.3395589,59.259757 32.0551886,58.3786514 32.3922016,57.3288114 C31.5201361,57.8439921 30.5541607,58.2181734 29.5260617,58.419853 C28.7026812,57.5460418 27.5296536,57 26.2314935,57 C23.7387395,57 21.7177878,59.0130282 21.7177878,61.4959473 C21.7177878,61.8483254 21.7577819,62.1914852 21.8347123,62.5205372 C18.0834705,62.3330457 14.7576795,60.5430995 12.5315264,57.8229905 C12.1430118,58.4870261 11.9204287,59.2593562 11.9204287,60.0833086 C11.9204287,61.6431188 12.7173342,63.0192853 13.9284246,63.8255226 C13.1884926,63.8021964 12.4925784,63.5999557 11.8839753,63.2632085 C11.8836534,63.2819657 11.8836534,63.300803 11.8836534,63.3197205 C11.8836534,65.4981163 13.4394821,67.3153165 15.5042906,67.7282946 C15.125513,67.8310582 14.7267786,67.885967 14.3150883,67.885967 C14.0242657,67.885967 13.7414902,67.8578313 13.4659571,67.8053273 C14.0402795,69.5915862 15.7071583,70.8914414 17.6822415,70.9277533 C16.1375178,72.1335823 14.1913237,72.8523663 12.0767036,72.8523663 C11.7124108,72.8523663 11.3531073,72.8311243 11,72.789602 C12.9974542,74.0652493 15.3699843,74.8095238 17.9189071,74.8095238 C26.2209518,74.8095238 30.7608106,67.9585909 30.7608106,62.0173002 C30.7608106,61.8223539 30.7564651,61.6284498 30.7477742,61.4356678 C31.6295768,60.801772 32.3948572,60.0098831 33,59.1082568"/>
    <path fill="#000000" d="M33,15.1082568 C32.190541,15.4658453 31.3206482,15.7075241 30.4076228,15.8162194 C31.3395589,15.259757 32.0551886,14.3786514 32.3922016,13.3288114 C31.5201361,13.8439921 30.5541607,14.2181734 29.5260617,14.419853 C28.7026812,13.5460418 27.5296536,13 26.2314935,13 C23.7387395,13 21.7177878,15.0130282 21.7177878,17.4959473 C21.7177878,17.8483254 21.7577819,18.1914852 21.8347123,18.5205372 C18.0834705,18.3330457 14.7576795,16.5430995 12.5315264,13.8229905 C12.1430118,14.4870261 11.9204287,15.2593562 11.9204287,16.0833086 C11.9204287,17.6431188 12.7173342,19.0192853 13.9284246,19.8255226 C13.1884926,19.8021964 12.4925784,19.5999557 11.8839753,19.2632085 C11.8836534,19.2819657 11.8836534,19.300803 11.8836534,19.3197205 C11.8836534,21.4981163 13.4394821,23.3153165 15.5042906,23.7282946 C15.125513,23.8310582 14.7267786,23.885967 14.3150883,23.885967 C14.0242657,23.885967 13.7414902,23.8578313 13.4659571,23.8053273 C14.0402795,25.5915862 15.7071583,26.8914414 17.6822415,26.9277533 C16.1375178,28.1335823 14.1913237,28.8523663 12.0767036,28.8523663 C11.7124108,28.8523663 11.3531073,28.8311243 11,28.789602 C12.9974542,30.0652493 15.3699843,30.8095238 17.9189071,30.8095238 C26.2209518,30.8095238 30.7608106,23.9585909 30.7608106,18.0173002 C30.7608106,17.8223539 30.7564651,17.6284498 30.7477742,17.4356678 C31.6295768,16.801772 32.3948572,16.0098831 33,15.1082568"/>
  </g>
</svg>
